<svg width="256" height="256" viewBox="0 0 256 256" fill="none" xmlns="http://www.w3.org/2000/svg">
<rect x="68" y="93.7656" width="34.1545" height="5.60887" rx="2" fill="#CECECE"/>
<rect x="68" y="30" width="120" height="60.0152" rx="4" fill="#CECECE"/>
<rect x="68" y="219.766" width="34.1545" height="5.60887" rx="2" fill="url(#paint0_linear_68_57)"/>
<rect x="69" y="157" width="118" height="58.0152" rx="4" stroke="url(#paint1_linear_68_57)" stroke-width="2"/>
<path d="M126.5 137.41C127.053 137.963 127.951 137.963 128.505 137.41L135.585 130.329C136.138 129.776 136.138 128.878 135.585 128.324C135.032 127.771 134.134 127.771 133.58 128.324L128.916 132.993V119.416C128.916 118.633 128.283 118 127.5 118C126.717 118 126.084 118.633 126.084 119.416V132.989L121.42 128.329C120.866 127.776 119.968 127.776 119.415 128.329C118.862 128.882 118.862 129.78 119.415 130.333L126.495 137.414L126.5 137.41Z" fill="url(#paint2_linear_68_57)"/>
<g filter="url(#filter0_d_68_57)">
<path d="M171.407 146.171C171.509 146.171 171.561 146.111 171.586 146.016C171.85 144.583 171.833 144.549 173.316 144.266C173.419 144.248 173.478 144.188 173.478 144.085C173.478 143.982 173.419 143.922 173.316 143.905C171.842 143.605 171.884 143.57 171.586 142.154C171.561 142.06 171.509 142 171.407 142C171.305 142 171.254 142.06 171.228 142.154C170.93 143.57 170.981 143.605 169.498 143.905C169.404 143.922 169.336 143.982 169.336 144.085C169.336 144.188 169.404 144.248 169.498 144.266C170.981 144.566 170.964 144.583 171.228 146.016C171.254 146.111 171.305 146.171 171.407 146.171ZM167.282 152.075C167.444 152.075 167.554 151.972 167.571 151.818C167.878 149.526 167.955 149.526 170.308 149.071C170.461 149.046 170.572 148.943 170.572 148.78C170.572 148.625 170.461 148.514 170.308 148.488C167.955 148.162 167.87 148.085 167.571 145.75C167.554 145.596 167.444 145.484 167.282 145.484C167.128 145.484 167.017 145.596 167 145.759C166.719 148.059 166.6 148.05 164.264 148.488C164.111 148.522 164 148.625 164 148.78C164 148.951 164.111 149.046 164.298 149.071C166.617 149.449 166.719 149.509 167 151.8C167.017 151.972 167.128 152.075 167.282 152.075ZM173.061 161.575C173.282 161.575 173.444 161.412 173.487 161.18C174.092 156.478 174.748 155.765 179.368 155.25C179.607 155.225 179.769 155.044 179.769 154.821C179.769 154.598 179.607 154.426 179.368 154.392C174.748 153.877 174.092 153.165 173.487 148.462C173.444 148.23 173.282 148.076 173.061 148.076C172.839 148.076 172.677 148.23 172.643 148.462C172.038 153.165 171.373 153.877 166.762 154.392C166.515 154.426 166.353 154.598 166.353 154.821C166.353 155.044 166.515 155.225 166.762 155.25C171.364 155.86 172.004 156.486 172.643 161.18C172.677 161.412 172.839 161.575 173.061 161.575Z" fill="white"/>
</g>
<g filter="url(#filter1_d_68_57)">
<path d="M70.4071 206.171C70.5094 206.171 70.5605 206.111 70.5861 206.016C70.8503 204.583 70.8333 204.549 72.3164 204.266C72.4187 204.248 72.4783 204.188 72.4783 204.085C72.4783 203.982 72.4187 203.922 72.3164 203.905C70.8418 203.605 70.8844 203.57 70.5861 202.154C70.5605 202.06 70.5094 202 70.4071 202C70.3048 202 70.2537 202.06 70.2281 202.154C69.9298 203.57 69.9809 203.605 68.4978 203.905C68.404 203.922 68.3358 203.982 68.3358 204.085C68.3358 204.188 68.404 204.248 68.4978 204.266C69.9809 204.566 69.9638 204.583 70.2281 206.016C70.2537 206.111 70.3048 206.171 70.4071 206.171ZM66.2816 212.075C66.4436 212.075 66.5544 211.972 66.5714 211.818C66.8783 209.526 66.955 209.526 69.3076 209.071C69.461 209.046 69.5718 208.943 69.5718 208.78C69.5718 208.625 69.461 208.514 69.3076 208.488C66.955 208.162 66.8697 208.085 66.5714 205.75C66.5544 205.596 66.4436 205.484 66.2816 205.484C66.1282 205.484 66.0174 205.596 66.0003 205.759C65.7191 208.059 65.5997 208.05 63.2642 208.488C63.1108 208.522 63 208.625 63 208.78C63 208.951 63.1108 209.046 63.2983 209.071C65.6168 209.449 65.7191 209.509 66.0003 211.8C66.0174 211.972 66.1282 212.075 66.2816 212.075ZM72.0607 221.575C72.2823 221.575 72.4443 221.412 72.4869 221.18C73.0921 216.478 73.7484 215.765 78.3682 215.25C78.6069 215.225 78.7688 215.044 78.7688 214.821C78.7688 214.598 78.6069 214.426 78.3682 214.392C73.7484 213.877 73.0921 213.165 72.4869 208.462C72.4443 208.23 72.2823 208.076 72.0607 208.076C71.8391 208.076 71.6771 208.23 71.6431 208.462C71.0379 213.165 70.373 213.877 65.7617 214.392C65.5145 214.426 65.3526 214.598 65.3526 214.821C65.3526 215.044 65.5145 215.225 65.7617 215.25C70.3645 215.86 71.0037 216.486 71.6431 221.18C71.6771 221.412 71.8391 221.575 72.0607 221.575Z" fill="white"/>
</g>
<defs>
<filter id="filter0_d_68_57" x="160" y="138" width="31.769" height="35.5751" filterUnits="userSpaceOnUse" color-interpolation-filters="sRGB">
<feFlood flood-opacity="0" result="BackgroundImageFix"/>
<feColorMatrix in="SourceAlpha" type="matrix" values="0 0 0 0 0 0 0 0 0 0 0 0 0 0 0 0 0 0 127 0" result="hardAlpha"/>
<feOffset dx="4" dy="4"/>
<feGaussianBlur stdDeviation="4"/>
<feComposite in2="hardAlpha" operator="out"/>
<feColorMatrix type="matrix" values="0 0 0 0 0 0 0 0 0 0 0 0 0 0 0 0 0 0 0.25 0"/>
<feBlend mode="normal" in2="BackgroundImageFix" result="effect1_dropShadow_68_57"/>
<feBlend mode="normal" in="SourceGraphic" in2="effect1_dropShadow_68_57" result="shape"/>
</filter>
<filter id="filter1_d_68_57" x="59" y="198" width="31.769" height="35.5751" filterUnits="userSpaceOnUse" color-interpolation-filters="sRGB">
<feFlood flood-opacity="0" result="BackgroundImageFix"/>
<feColorMatrix in="SourceAlpha" type="matrix" values="0 0 0 0 0 0 0 0 0 0 0 0 0 0 0 0 0 0 127 0" result="hardAlpha"/>
<feOffset dx="4" dy="4"/>
<feGaussianBlur stdDeviation="4"/>
<feComposite in2="hardAlpha" operator="out"/>
<feColorMatrix type="matrix" values="0 0 0 0 0 0 0 0 0 0 0 0 0 0 0 0 0 0 0.25 0"/>
<feBlend mode="normal" in2="BackgroundImageFix" result="effect1_dropShadow_68_57"/>
<feBlend mode="normal" in="SourceGraphic" in2="effect1_dropShadow_68_57" result="shape"/>
</filter>
<linearGradient id="paint0_linear_68_57" x1="68" y1="219.766" x2="69.7938" y2="230.689" gradientUnits="userSpaceOnUse">
<stop stop-color="#81FFEF"/>
<stop offset="1" stop-color="#F067B4"/>
</linearGradient>
<linearGradient id="paint1_linear_68_57" x1="68" y1="156" x2="188" y2="216" gradientUnits="userSpaceOnUse">
<stop stop-color="#81FFEF"/>
<stop offset="1" stop-color="#F067B4"/>
</linearGradient>
<linearGradient id="paint2_linear_68_57" x1="119" y1="118" x2="138.593" y2="134.801" gradientUnits="userSpaceOnUse">
<stop stop-color="#81FFEF"/>
<stop offset="1" stop-color="#F067B4"/>
</linearGradient>
</defs>
</svg>
