<svg width="256" height="256" viewBox="0 0 256 256" fill="none" xmlns="http://www.w3.org/2000/svg">
<ellipse cx="130.281" cy="83.7108" rx="41.7184" ry="41.7184" fill="url(#paint0_linear_64_206)"/>
<rect x="97.689" y="141.074" width="65.185" height="10.4296" rx="4" fill="url(#paint1_linear_64_206)"/>
<rect x="90.5181" y="160.629" width="79.5257" height="9.1259" rx="4" fill="url(#paint2_linear_64_206)"/>
<rect x="119.2" y="182.792" width="21.5111" height="7.17035" rx="2" fill="url(#paint3_linear_64_206)"/>
<g filter="url(#filter0_d_64_206)">
<path d="M99.173 35.4857C99.3825 35.4857 99.4873 35.3635 99.5397 35.1714C100.081 32.2556 100.046 32.1857 103.084 31.6095C103.294 31.5746 103.416 31.4524 103.416 31.2428C103.416 31.0333 103.294 30.9111 103.084 30.8762C100.063 30.2651 100.151 30.1953 99.5397 27.3143C99.4873 27.1222 99.3825 27 99.173 27C98.9634 27 98.8587 27.1222 98.8063 27.3143C98.1952 30.1953 98.3 30.2651 95.2619 30.8762C95.0698 30.9111 94.9302 31.0333 94.9302 31.2428C94.9302 31.4524 95.0698 31.5746 95.2619 31.6095C98.3 32.2207 98.265 32.2556 98.8063 35.1714C98.8587 35.3635 98.9634 35.4857 99.173 35.4857ZM90.7223 47.4984C91.054 47.4984 91.281 47.2888 91.3158 46.9746C91.9445 42.3127 92.1016 42.3127 96.9206 41.3873C97.2349 41.3349 97.4619 41.1254 97.4619 40.7937C97.4619 40.4794 97.2349 40.2524 96.9206 40.2C92.1016 39.5365 91.9269 39.3793 91.3158 34.6301C91.281 34.3159 91.054 34.0889 90.7223 34.0889C90.4079 34.0889 90.181 34.3159 90.146 34.6477C89.5699 39.327 89.3254 39.3095 84.5413 40.2C84.227 40.2699 84 40.4794 84 40.7937C84 41.1428 84.227 41.3349 84.6111 41.3873C89.3603 42.1555 89.5699 42.2778 90.146 46.9397C90.181 47.2888 90.4079 47.4984 90.7223 47.4984ZM102.56 66.8269C103.014 66.8269 103.346 66.4952 103.433 66.0238C104.673 56.4555 106.017 55.0063 115.481 53.9587C115.97 53.9063 116.302 53.5396 116.302 53.0857C116.302 52.6317 115.97 52.2825 115.481 52.2127C106.017 51.165 104.673 49.7158 103.433 40.1476C103.346 39.6762 103.014 39.3619 102.56 39.3619C102.106 39.3619 101.775 39.6762 101.705 40.1476C100.465 49.7158 99.1032 51.165 89.6571 52.2127C89.1508 52.2825 88.8191 52.6317 88.8191 53.0857C88.8191 53.5396 89.1508 53.9063 89.6571 53.9587C99.0857 55.1984 100.395 56.473 101.705 66.0238C101.775 66.4952 102.106 66.8269 102.56 66.8269Z" fill="white"/>
</g>
<g filter="url(#filter1_d_64_206)">
<path d="M153.768 129.605C153.903 129.605 153.971 129.526 154.005 129.402C154.354 127.519 154.332 127.474 156.294 127.102C156.429 127.079 156.508 127 156.508 126.865C156.508 126.73 156.429 126.651 156.294 126.628C154.343 126.234 154.399 126.189 154.005 124.328C153.971 124.204 153.903 124.125 153.768 124.125C153.633 124.125 153.565 124.204 153.531 124.328C153.137 126.189 153.204 126.234 151.242 126.628C151.118 126.651 151.028 126.73 151.028 126.865C151.028 127 151.118 127.079 151.242 127.102C153.204 127.497 153.182 127.519 153.531 129.402C153.565 129.526 153.633 129.605 153.768 129.605ZM148.311 137.362C148.525 137.362 148.672 137.227 148.694 137.024C149.1 134.014 149.201 134.014 152.313 133.416C152.516 133.382 152.663 133.247 152.663 133.033C152.663 132.83 152.516 132.683 152.313 132.649C149.201 132.221 149.089 132.119 148.694 129.053C148.672 128.85 148.525 128.703 148.311 128.703C148.108 128.703 147.961 128.85 147.939 129.064C147.567 132.086 147.409 132.074 144.319 132.649C144.116 132.694 143.97 132.83 143.97 133.033C143.97 133.258 144.116 133.382 144.364 133.416C147.431 133.912 147.567 133.991 147.939 137.002C147.961 137.227 148.108 137.362 148.311 137.362ZM155.955 149.844C156.248 149.844 156.463 149.63 156.519 149.325C157.32 143.147 158.188 142.211 164.299 141.534C164.615 141.5 164.829 141.264 164.829 140.97C164.829 140.677 164.615 140.452 164.299 140.407C158.188 139.73 157.32 138.794 156.519 132.616C156.463 132.311 156.248 132.108 155.955 132.108C155.662 132.108 155.448 132.311 155.403 132.616C154.602 138.794 153.723 139.73 147.623 140.407C147.296 140.452 147.082 140.677 147.082 140.97C147.082 141.264 147.296 141.5 147.623 141.534C153.712 142.335 154.557 143.158 155.403 149.325C155.448 149.63 155.662 149.844 155.955 149.844Z" fill="white"/>
</g>
<defs>
<filter id="filter0_d_64_206" x="80" y="23" width="48.3018" height="55.8269" filterUnits="userSpaceOnUse" color-interpolation-filters="sRGB">
<feFlood flood-opacity="0" result="BackgroundImageFix"/>
<feColorMatrix in="SourceAlpha" type="matrix" values="0 0 0 0 0 0 0 0 0 0 0 0 0 0 0 0 0 0 127 0" result="hardAlpha"/>
<feOffset dx="4" dy="4"/>
<feGaussianBlur stdDeviation="4"/>
<feComposite in2="hardAlpha" operator="out"/>
<feColorMatrix type="matrix" values="0 0 0 0 0 0 0 0 0 0 0 0 0 0 0 0 0 0 0.25 0"/>
<feBlend mode="normal" in2="BackgroundImageFix" result="effect1_dropShadow_64_206"/>
<feBlend mode="normal" in="SourceGraphic" in2="effect1_dropShadow_64_206" result="shape"/>
</filter>
<filter id="filter1_d_64_206" x="139.97" y="120.125" width="36.8594" height="41.7189" filterUnits="userSpaceOnUse" color-interpolation-filters="sRGB">
<feFlood flood-opacity="0" result="BackgroundImageFix"/>
<feColorMatrix in="SourceAlpha" type="matrix" values="0 0 0 0 0 0 0 0 0 0 0 0 0 0 0 0 0 0 127 0" result="hardAlpha"/>
<feOffset dx="4" dy="4"/>
<feGaussianBlur stdDeviation="4"/>
<feComposite in2="hardAlpha" operator="out"/>
<feColorMatrix type="matrix" values="0 0 0 0 0 0 0 0 0 0 0 0 0 0 0 0 0 0 0.25 0"/>
<feBlend mode="normal" in2="BackgroundImageFix" result="effect1_dropShadow_64_206"/>
<feBlend mode="normal" in="SourceGraphic" in2="effect1_dropShadow_64_206" result="shape"/>
</filter>
<linearGradient id="paint0_linear_64_206" x1="88.563" y1="41.9924" x2="172" y2="125.429" gradientUnits="userSpaceOnUse">
<stop stop-color="#81FFEF"/>
<stop offset="1" stop-color="#F067B4"/>
</linearGradient>
<linearGradient id="paint1_linear_64_206" x1="97.689" y1="141.074" x2="100.943" y2="161.412" gradientUnits="userSpaceOnUse">
<stop stop-color="#81FFEF"/>
<stop offset="1" stop-color="#F067B4"/>
</linearGradient>
<linearGradient id="paint2_linear_64_206" x1="90.5181" y1="160.629" x2="92.5853" y2="178.644" gradientUnits="userSpaceOnUse">
<stop stop-color="#81FFEF"/>
<stop offset="1" stop-color="#F067B4"/>
</linearGradient>
<linearGradient id="paint3_linear_64_206" x1="119.2" y1="182.792" x2="123.502" y2="195.698" gradientUnits="userSpaceOnUse">
<stop stop-color="#81FFEF"/>
<stop offset="1" stop-color="#F067B4"/>
</linearGradient>
</defs>
</svg>
